# xmcd
#
# Track frame offsets:
#	150
#	110212
#	240392
#
# Disc length: 4556 seconds
#
# Revision: 1
# Processed by: cddbd v1.5.2PL0 Copyright (c) Steve Scherf et al.
# Submitted via: audiograbber 1.83.01
#
DISCID=2011ca03
DTITLE=Klaus Schulze and Solar Moon - Ultimate Docking [CD 2)
DYEAR=2017
DGENRE=Electronic
TTITLE0=Strong [Dub Version]
TTITLE1=What You Deserve [Poly Dub]
TTITLE2=What You Deserve [instrumental]
EXTD=
EXTT0=
EXTT1=
EXTT2=
PLAYORDER=
